<?xml version="1.0" encoding="UTF-8"?>
<svg id="Content" xmlns="http://www.w3.org/2000/svg" version="1.1" viewBox="0 0 200 200">
  <!-- Generator: Adobe Illustrator 29.0.1, SVG Export Plug-In . SVG Version: 2.1.0 Build 192)  -->
  <defs>
    <style>
      .st0 {
        fill: #f2e9d7;
        fill-rule: evenodd;
      }
    </style>
  </defs>
  <path class="st0" d="M94.96,173.17H30.87c-1.1,0-2.01-.89-2.01-2.01v-64.09c0-1.1.89-2.01,2.01-2.01h64.09c1.1,0,2.01.89,2.01,2.01v64.09c0,1.11-.89,2.01-2.01,2.01ZM94.96,185.19c7.74,0,14.02-6.26,14.02-14.02v-64.09c0-7.74-6.28-14.02-14.02-14.02H30.87c-7.74,0-14.02,6.27-14.02,14.02v64.09c0,7.76,6.28,14.02,14.02,14.02h64.09Z"/>
  <path class="st0" d="M135.74,104.39c2.4.49,4.8.68,7.29.68,25.43,0,46.06-20.64,46.06-46.06s-20.64-46.06-46.06-46.06-46.06,20.65-46.06,46.06c0,2.77.21,5.46.79,8.04.72,3.24,3.94,5.28,7.17,4.56,3.24-.72,5.28-3.94,4.56-7.17-.38-1.73-.5-3.55-.5-5.42,0-18.78,15.25-34.05,34.05-34.05s34.05,15.26,34.05,34.05-15.25,34.05-34.05,34.05c-1.67,0-3.27-.11-4.89-.44-3.25-.67-6.42,1.44-7.09,4.69-.67,3.25,1.44,6.42,4.69,7.09h0Z"/>
  <path class="st0" d="M98.72,146.42l7.74,7.74c7.62,7.62,20.65,4.15,23.46-6.28l12.83-47.81,8.43-31.55c2.79-10.43-6.74-19.97-17.18-17.15,0,0-31.93,8.57-31.93,8.57l-47.39,12.67c-10.43,2.79-13.93,15.83-6.29,23.46l7.26,7.25c2.35,2.34,6.15,2.34,8.49,0,2.35-2.35,2.35-6.15,0-8.49l-7.24-7.24c-1.1-1.09-.6-2.96.89-3.36l47.39-12.67,31.95-8.58c1.49-.4,2.85.96,2.44,2.44l-8.43,31.54-12.82,47.81c-.41,1.49-2.27,1.99-3.36.89l-7.74-7.74c-2.35-2.35-6.15-2.35-8.5,0-2.34,2.35-2.34,6.15,0,8.5v.02Z"/>
</svg>